<svg width="30" height="31" viewBox="0 0 30 31" fill="none" xmlns="http://www.w3.org/2000/svg">
<g filter="url(#filter0_d_1_9110)">
<path d="M16 5.5C16 6.60457 13.5376 7.5 10.5 7.5C7.46243 7.5 5 6.60457 5 5.5M16 5.5C16 4.39543 13.5376 3.5 10.5 3.5C7.46243 3.5 5 4.39543 5 5.5M16 5.5V7M5 5.5V17.5C5 18.6046 7.46243 19.5 10.5 19.5M10.5 11.5C10.3315 11.5 10.1647 11.4972 10 11.4918C7.19675 11.4 5 10.5433 5 9.5M10.5 15.5C7.46243 15.5 5 14.6046 5 13.5M25 12C25 13.1046 22.5376 14 19.5 14C16.4624 14 14 13.1046 14 12M25 12C25 10.8954 22.5376 10 19.5 10C16.4624 10 14 10.8954 14 12M25 12V19.5C25 20.6046 22.5376 21.5 19.5 21.5C16.4624 21.5 14 20.6046 14 19.5V12M25 15.75C25 16.8546 22.5376 17.75 19.5 17.75C16.4624 17.75 14 16.8546 14 15.75" stroke="#5D5D5D" stroke-width="1.6" stroke-linecap="round" stroke-linejoin="round"/>
</g>
<defs>
<filter id="filter0_d_1_9110" x="-1" y="0.5" width="32" height="32" filterUnits="userSpaceOnUse" color-interpolation-filters="sRGB">
<feFlood flood-opacity="0" result="BackgroundImageFix"/>
<feColorMatrix in="SourceAlpha" type="matrix" values="0 0 0 0 0 0 0 0 0 0 0 0 0 0 0 0 0 0 127 0" result="hardAlpha"/>
<feOffset dy="4"/>
<feGaussianBlur stdDeviation="2"/>
<feComposite in2="hardAlpha" operator="out"/>
<feColorMatrix type="matrix" values="0 0 0 0 0 0 0 0 0 0 0 0 0 0 0 0 0 0 0.25 0"/>
<feBlend mode="normal" in2="BackgroundImageFix" result="effect1_dropShadow_1_9110"/>
<feBlend mode="normal" in="SourceGraphic" in2="effect1_dropShadow_1_9110" result="shape"/>
</filter>
</defs>
</svg>
